<?xml version="1.0" standalone="no"?>
<!DOCTYPE svg PUBLIC "-//W3C//DTD SVG 20010904//EN"
 "http://www.w3.org/TR/2001/REC-SVG-20010904/DTD/svg10.dtd">
<svg version="1.0" xmlns="http://www.w3.org/2000/svg"
 width="500.000000pt" height="500.000000pt" viewBox="0 0 500.000000 500.000000"
 preserveAspectRatio="xMidYMid meet">
<metadata>
Created by potrace 1.14, written by Peter Selinger 2001-2017
</metadata>
<g transform="translate(0.000000,500.000000) scale(0.100000,-0.100000)"
fill="#000000" stroke="none">
<path d="M2288 3609 c-40 -23 1 -71 42 -49 25 14 26 36 1 50 -23 12 -22 12
-43 -1z"/>
<path d="M2285 3480 c-12 -19 -34 -124 -65 -304 -16 -93 -31 -171 -33 -173 -2
-1 -40 39 -83 89 -131 153 -152 132 -118 -119 4 -28 2 -43 -5 -43 -5 0 -44 20
-84 45 -80 48 -107 55 -107 27 0 -9 19 -80 41 -157 23 -77 44 -149 46 -160 4
-18 -6 -24 -69 -44 -135 -43 -223 -98 -373 -230 -132 -117 -322 -230 -522
-311 -46 -19 -81 -36 -78 -38 6 -6 261 105 345 151 112 61 212 130 293 203
140 128 268 201 430 245 40 11 55 18 35 15 -22 -3 -38 0 -41 7 -12 33 -50 247
-45 252 3 4 44 -19 89 -50 109 -74 115 -71 111 56 l-3 94 53 -60 c93 -105 115
-125 132 -119 19 7 21 16 35 159 18 168 33 275 41 275 4 0 19 -37 34 -82 36
-106 104 -279 116 -298 13 -19 23 -7 92 117 28 51 54 91 57 87 3 -3 4 -57 2
-120 -2 -85 0 -114 9 -114 7 0 53 32 102 71 50 39 92 69 94 66 2 -2 -4 -62
-14 -133 l-17 -129 -45 5 c-25 3 -126 4 -225 4 -183 -1 -277 -14 -457 -61 -67
-18 -94 -37 -40 -28 15 3 72 12 127 22 136 23 498 24 599 1 96 -22 99 -19 115
153 7 74 16 159 21 189 8 52 1 80 -20 80 -5 0 -57 -46 -117 -102 l-108 -102
-5 130 -5 129 -26 -40 c-15 -22 -48 -75 -74 -117 -26 -43 -49 -78 -51 -78 -15
0 -128 426 -136 510 -2 27 -8 36 -25 38 -11 2 -24 -2 -28 -8z"/>
<path d="M1912 3288 c-20 -20 -14 -48 14 -60 29 -14 57 -2 62 26 8 37 -48 62
-76 34z"/>
<path d="M2610 3240 c0 -5 7 -10 15 -10 8 0 15 5 15 10 0 6 -7 10 -15 10 -8 0
-15 -4 -15 -10z"/>
<path d="M2892 3218 c-21 -21 -14 -48 12 -48 34 0 42 18 19 41 -15 15 -21 17
-31 7z"/>
<path d="M1734 3085 c-8 -19 3 -35 25 -35 26 0 44 23 29 38 -17 17 -47 15 -54
-3z"/>
<path d="M2340 2660 c-12 -8 -8 -15 25 -42 22 -18 65 -56 96 -84 106 -97 57
-89 542 -89 l429 0 -68 32 c-87 40 -354 139 -414 152 -141 33 -573 55 -610 31z"/>
<path d="M1945 2611 c-69 -19 -155 -50 -155 -57 0 -1 22 -32 49 -68 27 -36 52
-75 56 -87 7 -22 8 -22 204 -15 108 4 231 9 273 13 l78 6 -18 30 c-34 59 -102
124 -164 157 -57 31 -72 34 -158 37 -70 2 -114 -2 -165 -16z"/>
<path d="M1665 2497 c-56 -30 -174 -131 -164 -141 2 -2 27 0 54 4 28 5 102 9
165 10 145 1 153 5 116 62 -39 59 -77 98 -95 98 -9 0 -43 -15 -76 -33z"/>
<path d="M2945 2411 c-35 -7 -32 -8 32 -10 98 -1 431 -45 575 -75 145 -30 208
-68 321 -194 20 -23 37 -39 37 -35 -1 5 -21 46 -45 93 -30 57 -41 88 -34 95
18 18 296 19 364 1 32 -8 61 -14 63 -12 6 7 -111 47 -195 67 -46 10 -171 31
-276 45 -165 23 -234 27 -497 29 -168 2 -323 0 -345 -4z"/>
<path d="M3973 2281 c-51 -3 -97 -11 -103 -17 -14 -14 40 -122 83 -168 32 -33
32 -33 152 -40 196 -10 235 -10 246 1 15 15 -25 146 -52 172 -45 41 -175 62
-326 52z"/>
<path d="M3328 2269 c-69 -40 67 -170 145 -140 15 6 32 10 38 8 6 -1 17 7 24
18 22 32 -4 79 -57 105 -24 11 -34 15 -23 8 64 -42 87 -84 65 -118 -8 -11 -9
-9 -5 10 16 67 -123 147 -187 109z"/>
<path d="M3560 2260 c-21 -40 19 -109 80 -140 47 -24 83 -25 104 -4 22 22 20
45 -9 90 l-26 39 26 -29 c14 -15 29 -41 32 -57 6 -32 23 -30 23 3 0 21 -66 92
-79 84 -4 -3 -20 4 -37 15 -40 26 -100 25 -114 -1z"/>
<path d="M4335 2188 c14 -45 58 -118 72 -118 16 0 11 23 -14 75 -29 58 -72 90
-58 43z"/>
<path d="M2885 2141 c49 -22 68 -43 97 -106 19 -42 23 -67 23 -160 0 -60 -6
-133 -13 -162 -19 -73 -64 -137 -115 -163 l-42 -22 43 5 c113 13 181 118 190
293 3 76 1 103 -17 157 -34 100 -113 177 -183 177 -18 0 -15 -4 17 -19z"/>
<path d="M762 2043 c-24 -8 -41 -17 -39 -19 4 -5 97 26 97 32 0 6 -11 4 -58
-13z"/>
<path d="M1539 1980 c37 -98 17 -92 363 -101 368 -9 493 -11 487 -4 -3 2 -165
14 -360 25 -194 11 -371 25 -391 30 -24 7 -51 27 -78 58 l-42 47 21 -55z"/>
<path d="M1650 1826 c-64 -10 -63 -10 100 -19 91 -4 275 -4 410 0 l245 7 -240
7 c-132 4 -287 9 -345 11 -58 3 -134 0 -170 -6z"/>
<path d="M3162 1742 l3 -77 48 -7 c138 -19 452 -30 711 -25 304 6 443 19 515
46 44 16 46 18 46 56 0 45 1 45 -84 21 -97 -28 -383 -40 -640 -27 -239 11
-274 18 -303 59 -11 16 -33 20 -156 25 l-143 7 3 -78z"/>
<path d="M3086 1730 c-21 -86 -82 -167 -151 -203 -30 -16 -29 -16 47 -17 92 0
121 10 171 58 l38 37 -43 5 -43 5 -5 75 c-5 68 -6 72 -14 40z"/>
<path d="M1250 1724 c8 -2 146 -24 307 -49 290 -45 292 -45 535 -44 l243 2
-180 13 c-99 8 -343 29 -542 49 -344 33 -398 38 -363 29z"/>
<path d="M3905 1590 c-77 -3 -132 -8 -122 -12 26 -11 20 -26 -13 -33 -47 -10
-135 -97 -154 -152 -21 -60 -20 -146 1 -190 19 -41 73 -79 125 -88 73 -14 148
35 163 105 l8 35 -46 -42 c-56 -52 -101 -63 -154 -37 -48 24 -63 54 -63 127 0
68 23 120 74 164 56 50 95 58 177 38 47 -12 88 -16 122 -11 57 6 163 54 192
86 18 20 18 20 -76 18 -52 -1 -157 -5 -234 -8z"/>
<path d="M1800 1546 c-17 -46 -31 -266 -20 -331 5 -33 10 -61 10 -62 0 -9 65
-33 90 -33 39 0 65 13 108 53 45 43 40 48 -17 20 -53 -27 -105 -33 -124 -14
-8 8 -12 66 -12 198 0 140 -3 187 -12 190 -7 3 -17 -7 -23 -21z"/>
<path d="M257 1546 c-37 -14 -71 -36 -64 -43 2 -2 20 4 40 12 42 17 129 20
158 5 14 -8 19 -21 19 -57 0 -39 -5 -50 -39 -84 -25 -25 -48 -39 -65 -39 -14
0 -29 -1 -33 -2 -3 -2 -5 30 -4 70 2 58 -1 73 -14 78 -9 4 -18 4 -21 1 -8 -7
-33 -338 -27 -354 3 -7 9 -13 14 -13 16 0 27 35 34 108 l7 72 43 0 43 0 21
-67 c24 -79 45 -113 70 -113 30 0 31 10 6 59 -13 25 -32 69 -43 98 l-20 52 33
25 c48 37 62 78 44 130 -23 68 -109 95 -202 62z"/>
<path d="M3308 1379 c-9 -20 -19 -47 -23 -60 -9 -31 -33 -57 -67 -75 l-26 -14
-7 63 c-9 78 -22 105 -40 86 -10 -10 -11 -33 -6 -86 8 -90 17 -101 72 -86 l41
11 -6 -27 c-4 -14 -28 -70 -54 -123 -26 -54 -45 -98 -41 -98 16 0 61 45 83 83
53 92 111 300 96 342 -6 17 -9 15 -22 -16z"/>
<path d="M602 1380 c-63 -39 -95 -129 -68 -194 20 -48 54 -68 112 -64 41 3 51
8 77 40 17 21 27 41 23 45 -4 5 -13 1 -19 -8 -51 -69 -147 -55 -147 22 0 27 3
29 39 29 86 0 142 81 90 129 -28 26 -65 27 -107 1z m78 -39 c0 -25 -45 -61
-76 -61 -31 0 -31 24 1 55 30 31 75 34 75 6z"/>
<path d="M959 1339 c-17 -45 -31 -67 -58 -84 -19 -14 -37 -23 -39 -21 -2 2 -8
35 -13 72 -10 74 -24 99 -39 74 -12 -19 -1 -150 13 -168 11 -14 45 -12 81 3
17 7 18 5 12 -21 -4 -16 -28 -73 -54 -126 -26 -54 -45 -98 -41 -98 3 0 17 9
31 19 33 26 73 104 109 209 52 152 50 284 -2 141z"/>
<path d="M1123 1380 c-69 -42 -98 -170 -50 -225 23 -27 73 -43 120 -37 19 2
36 15 54 43 33 50 25 59 -17 19 -18 -16 -43 -30 -57 -30 -31 0 -73 42 -73 75
0 22 4 25 38 25 93 0 152 91 89 135 -29 20 -66 19 -104 -5z m83 -32 c10 -16
-51 -68 -81 -68 -32 0 -32 20 1 54 28 27 68 34 80 14z"/>
<path d="M1374 1381 c-62 -38 -61 -116 1 -135 66 -19 75 -25 75 -50 0 -37 -23
-49 -80 -42 -28 4 -50 3 -50 -2 0 -42 116 -47 155 -7 48 47 23 104 -55 125
-47 13 -58 30 -41 66 10 23 16 25 59 23 36 -3 48 0 50 13 6 31 -68 37 -114 9z"/>
<path d="M2079 1373 c-6 -16 -9 -69 -7 -120 3 -81 6 -94 27 -117 32 -34 53
-33 95 4 34 30 35 30 46 11 16 -30 48 -45 66 -30 8 6 14 19 13 28 0 10 -2 12
-6 3 -14 -34 -23 10 -23 111 0 62 -5 119 -10 127 -17 27 -39 -9 -46 -75 -7
-64 -42 -138 -73 -155 -25 -13 -31 4 -37 110 -6 103 -11 130 -24 130 -6 0 -15
-12 -21 -27z"/>
<path d="M2656 1378 c-11 -54 -14 -157 -6 -193 9 -40 40 -75 66 -75 7 0 30 14
50 32 32 28 37 30 45 15 27 -47 61 -60 79 -28 14 27 13 36 -4 22 -21 -18 -26
7 -26 135 0 95 -2 114 -15 114 -18 0 -35 -39 -35 -78 0 -50 -21 -104 -55 -140
l-34 -37 -10 28 c-6 16 -11 61 -12 100 -1 81 -9 119 -26 124 -7 3 -14 -6 -17
-19z"/>
<path d="M2940 1388 l-25 -10 23 -9 c21 -8 22 -14 22 -117 0 -93 3 -111 18
-125 26 -24 32 -13 32 62 1 101 13 141 56 179 35 30 36 32 14 32 -13 0 -35
-10 -48 -22 -17 -16 -26 -19 -29 -10 -8 21 -36 30 -63 20z"/>
<path d="M4034 1386 c-39 -17 -58 -42 -23 -30 13 4 38 8 54 9 28 0 30 -3 30
-35 0 -31 -3 -35 -38 -43 -54 -13 -97 -57 -97 -99 0 -66 72 -91 126 -44 l28
23 19 -23 c22 -29 43 -31 57 -5 14 26 13 29 -7 27 -20 -1 -31 49 -32 146 -1
47 -5 60 -23 72 -27 19 -53 20 -94 2z m64 -157 c4 -47 -26 -75 -75 -70 -8 1
-13 15 -13 35 0 26 7 40 27 56 37 29 57 22 61 -21z"/>
<path d="M4240 1387 c-19 -8 -21 -11 -9 -14 23 -6 29 -33 29 -140 0 -72 4 -95
16 -108 25 -25 34 -3 34 88 0 93 18 140 64 165 30 16 30 17 8 20 -15 2 -34 -5
-49 -20 -18 -16 -27 -19 -30 -10 -8 21 -36 30 -63 19z"/>
<path d="M4494 1390 c-30 -12 -64 -58 -64 -86 0 -33 34 -64 69 -64 38 0 64
-25 55 -54 -12 -36 -46 -46 -98 -26 -32 12 -41 -2 -17 -24 13 -12 36 -18 68
-18 41 0 52 5 75 31 16 17 28 37 28 45 0 28 -42 66 -85 77 -51 13 -62 32 -39
67 14 21 21 24 60 19 49 -5 67 9 39 30 -21 15 -59 16 -91 3z"/>
<path d="M2375 1379 c-4 -6 2 -17 14 -25 29 -21 54 -72 47 -98 -3 -11 -21 -44
-40 -73 -19 -28 -31 -54 -28 -57 16 -17 43 -1 70 39 l30 46 32 -46 c18 -26 39
-45 50 -45 23 0 26 5 34 50 6 31 5 33 -7 18 -8 -10 -17 -18 -20 -18 -4 0 -18
23 -33 51 l-25 51 35 54 c42 62 42 64 17 64 -11 0 -31 -14 -45 -32 l-24 -32
-30 32 c-30 32 -65 42 -77 21z"/>
</g>
</svg>
